<svg width="256" height="96" viewBox="0 0 256 96" fill="none" xmlns="http://www.w3.org/2000/svg">
<path d="M17.328 50.032C17.328 51.504 17.536 52.576 17.952 53.248C18.368 53.888 19.024 54.208 19.92 54.208C22.16 54.208 23.68 53.296 24.48 51.472C25.312 49.648 25.728 47.152 25.728 43.984C25.728 42.448 25.632 40.304 25.44 37.552C25.248 34.928 25.152 32.976 25.152 31.696C21.728 31.696 20.016 31.024 20.016 29.68C20.016 28.88 20.144 28.352 20.4 28.096C20.688 27.84 21.12 27.712 21.696 27.712C22.048 27.712 22.432 27.744 22.848 27.808C23.264 27.84 23.568 27.856 23.76 27.856C24.4 27.952 25.008 28 25.584 28C26.64 28 27.616 27.952 28.512 27.856C29.664 27.792 30.528 27.76 31.104 27.76C32.256 27.76 33.056 27.872 33.504 28.096C33.984 28.32 34.224 28.752 34.224 29.392C34.224 30.064 34.048 30.544 33.696 30.832C33.376 31.088 32.896 31.28 32.256 31.408L30.048 31.648C30.016 33.76 30.144 36.288 30.432 39.232C30.464 39.68 30.528 40.528 30.624 41.776C30.72 42.992 30.768 44.112 30.768 45.136C30.768 49.296 29.888 52.512 28.128 54.784C26.368 57.024 23.744 58.144 20.256 58.144C18.08 58.144 16.256 57.52 14.784 56.272C13.344 54.992 12.624 53.088 12.624 50.56C12.624 49.856 12.88 49.296 13.392 48.88C13.904 48.432 14.592 48.208 15.456 48.208C16.064 48.208 16.528 48.416 16.848 48.832C17.168 49.248 17.328 49.648 17.328 50.032ZM52.1873 27.472C54.3313 27.472 56.2833 27.744 58.0433 28.288C59.8033 28.8 61.2433 29.568 62.3633 30.592C64.3793 32.416 65.7873 34.416 66.5873 36.592C67.4193 38.736 67.8353 41.488 67.8353 44.848C67.8353 45.552 67.7393 46.192 67.5473 46.768C67.3873 47.344 67.1153 48.08 66.7313 48.976C66.2513 49.968 65.9633 50.752 65.8673 51.328C65.2273 52.448 64.1713 53.52 62.6993 54.544C61.2593 55.568 59.6913 56.4 57.9953 57.04C56.2993 57.68 54.8113 58 53.5313 58C47.3553 58 42.9553 55.888 40.3313 51.664C39.5953 50.48 39.0193 49.248 38.6033 47.968C38.2193 46.688 38.0273 45.44 38.0273 44.224C38.0273 40.96 38.6033 38.128 39.7553 35.728C40.9393 33.296 42.5713 31.408 44.6513 30.064C45.8993 29.328 47.1953 28.72 48.5393 28.24C49.9153 27.728 51.1313 27.472 52.1873 27.472ZM43.0193 44.368C43.0193 46.096 43.4033 47.52 44.1713 48.64C44.9713 49.76 46.1873 50.976 47.8193 52.288C49.1633 52.8 50.0753 53.136 50.5553 53.296C51.0353 53.424 51.5793 53.488 52.1873 53.488C55.4193 53.488 57.9953 52.608 59.9153 50.848C61.8353 49.088 62.7953 46.672 62.7953 43.6C62.7953 41.168 62.5233 39.248 61.9792 37.84C61.4353 36.432 60.4593 35.168 59.0513 34.048C58.3153 33.44 57.3713 32.992 56.2193 32.704C55.0993 32.416 53.8833 32.272 52.5713 32.272C50.5873 32.272 48.8753 32.864 47.4353 34.048C45.9953 35.2 44.8913 36.704 44.1233 38.56C43.3873 40.416 43.0193 42.352 43.0193 44.368ZM78.0026 21.136C77.4266 21.776 77.1386 22.496 77.1386 23.296C77.1386 23.712 77.3146 24.048 77.6666 24.304C78.0186 24.56 78.3546 24.688 78.6746 24.688C79.4746 24.688 80.1306 24.32 80.6426 23.584C81.1546 22.816 81.8906 22.432 82.8506 22.432C83.1386 22.432 83.3946 22.496 83.6186 22.624C83.8746 22.752 84.1946 22.96 84.5786 23.248C85.1866 23.696 85.7466 24.032 86.2586 24.256C86.7706 24.48 87.4426 24.592 88.2746 24.592C89.0106 24.592 89.7306 24.4 90.4346 24.016C91.1706 23.6 91.7626 23.088 92.2106 22.48C92.6906 21.84 92.9306 21.2 92.9306 20.56C92.9306 20.08 92.7546 19.728 92.4026 19.504C92.0826 19.248 91.7146 19.12 91.2986 19.12C90.9466 19.12 90.6586 19.2 90.4346 19.36C90.2106 19.488 90.0026 19.696 89.8106 19.984C89.7786 20.048 89.6986 20.176 89.5706 20.368C89.4746 20.56 89.3306 20.736 89.1386 20.896C88.9466 21.056 88.6906 21.136 88.3706 21.136C87.7946 21.168 87.0586 20.864 86.1626 20.224C85.0426 19.456 83.8746 19.072 82.6586 19.072C81.8586 19.072 81.0266 19.264 80.1626 19.648C79.2986 20 78.5786 20.496 78.0026 21.136ZM97.3466 58.24C96.4186 58.24 95.7146 57.92 95.2346 57.28C94.8186 56.736 94.4666 56.144 94.1786 55.504C93.8906 54.832 93.5866 54.032 93.2666 53.104C93.2026 52.944 93.0106 52.464 92.6906 51.664C92.4026 50.864 92.0666 50.176 91.6826 49.6C89.6666 49.888 88.0186 50.032 86.7386 50.032C86.0346 50.032 85.2506 50.016 84.3866 49.984C83.5546 49.92 82.9306 49.888 82.5146 49.888C80.9146 49.76 79.6346 49.696 78.6746 49.696C78.2906 50.208 77.9546 50.752 77.6666 51.328C77.4106 51.904 77.0746 52.768 76.6586 53.92C76.0826 55.584 75.5866 56.768 75.1706 57.472C74.8826 57.952 74.3226 58.192 73.4906 58.192C72.7866 58.192 72.1306 58.048 71.5226 57.76C70.9466 57.44 70.6586 57.008 70.6586 56.464C70.9146 55.248 71.3146 53.968 71.8586 52.624C72.4346 51.248 73.2506 49.424 74.3066 47.152L76.2266 42.448C77.2826 39.76 78.2426 37.456 79.1066 35.536C80.0026 33.616 81.1706 31.344 82.6106 28.72C82.8026 28.336 83.1226 28.016 83.5706 27.76C84.0186 27.472 84.5146 27.328 85.0586 27.328C85.6666 27.328 86.0986 27.376 86.3546 27.472C86.6426 27.536 86.8666 27.664 87.0266 27.856C87.1866 28.016 87.4266 28.368 87.7466 28.912C88.8346 30.608 89.7626 32.352 90.5306 34.144C91.3306 35.936 92.3386 38.416 93.5546 41.584L94.5626 44.128C95.4586 46.432 96.2266 48.368 96.8666 49.936C97.5386 51.472 98.2746 52.88 99.0746 54.16C99.5866 54.992 99.8426 55.568 99.8426 55.888C99.8426 56.656 99.6026 57.248 99.1226 57.664C98.6746 58.048 98.0826 58.24 97.3466 58.24ZM86.3066 46C88.0026 46 89.3306 45.888 90.2906 45.664C89.7786 44.576 89.0426 42.688 88.0826 40C87.0906 37.12 86.0986 34.832 85.1066 33.136C84.4986 34.672 83.6026 36.656 82.4186 39.088C81.6186 40.592 80.7066 42.768 79.6826 45.616C81.7306 45.872 83.9386 46 86.3066 46ZM118.642 58.048C116.53 58.048 114.594 57.792 112.834 57.28C111.074 56.736 109.634 55.952 108.514 54.928C106.466 53.104 105.026 51.12 104.194 48.976C103.394 46.8 102.994 44.032 102.994 40.672C102.994 39.968 103.09 39.312 103.282 38.704C103.506 38.064 103.794 37.36 104.146 36.592C104.242 36.368 104.386 36.016 104.578 35.536C104.802 35.024 104.946 34.56 105.01 34.144C105.618 33.024 106.642 31.952 108.082 30.928C109.554 29.904 111.138 29.088 112.834 28.48C114.53 27.84 116.018 27.52 117.298 27.52C123.474 27.52 127.89 29.632 130.546 33.856C132.05 36.32 132.802 38.8 132.802 41.296C132.802 44.528 132.21 47.36 131.026 49.792C129.874 52.224 128.274 54.112 126.226 55.456C124.946 56.224 123.634 56.848 122.29 57.328C120.946 57.808 119.73 58.048 118.642 58.048ZM107.986 44.224C107.954 45.984 108.322 47.44 109.09 48.592C109.89 49.712 111.138 50.944 112.834 52.288C114.114 52.768 115.01 53.088 115.522 53.248C116.034 53.408 116.594 53.488 117.202 53.488C119.282 53.488 121.122 53.056 122.722 52.192C124.322 51.328 125.554 50.144 126.418 48.64C127.314 47.136 127.762 45.456 127.762 43.6C127.762 41.168 127.49 39.248 126.946 37.84C126.402 36.432 125.426 35.168 124.018 34.048C123.282 33.44 122.338 32.992 121.186 32.704C120.066 32.416 118.866 32.272 117.586 32.272C114.514 32.272 112.13 33.36 110.434 35.536C108.77 37.68 107.954 40.576 107.986 44.224ZM171.024 49.744C171.024 51.248 170.704 52.464 170.064 53.392C169.424 54.32 168.32 55.232 166.752 56.128C165.696 56.768 164.48 57.264 163.104 57.616C161.728 57.936 160.336 58.096 158.928 58.096C158.064 58.096 157.056 57.936 155.904 57.616C154.784 57.264 153.872 56.928 153.168 56.608L152.352 55.888C150.912 54.704 149.904 53.76 149.328 53.056C148.784 52.32 148.512 51.424 148.512 50.368C148.512 49.536 148.704 48.912 149.088 48.496C149.472 48.08 150.096 47.872 150.96 47.872C151.408 47.872 151.824 48.016 152.208 48.304C152.592 48.592 152.928 48.992 153.216 49.504C154.016 50.912 154.96 51.952 156.048 52.624C157.168 53.264 158.48 53.584 159.984 53.584C161.392 53.584 162.816 53.152 164.256 52.288C165.44 51.552 166.032 50.832 166.032 50.128C166.032 48.88 165.472 47.84 164.352 47.008C163.264 46.176 161.696 45.424 159.648 44.752C158.4 44.304 156.528 43.472 154.032 42.256C152.336 41.424 151.072 40.4 150.24 39.184C149.408 37.968 148.992 36.688 148.992 35.344C148.992 34.128 149.408 32.944 150.24 31.792C151.104 30.608 152.144 29.728 153.36 29.152C154 28.832 155.024 28.496 156.432 28.144C157.84 27.76 158.896 27.568 159.6 27.568C160.912 27.568 162.048 27.728 163.008 28.048C163.968 28.336 164.912 28.752 165.84 29.296C167.248 30.096 168.288 30.816 168.96 31.456C169.632 32.096 169.968 32.896 169.968 33.856C169.968 34.432 169.744 34.944 169.296 35.392C168.88 35.84 168.144 36.064 167.088 36.064C166.832 36.064 166.576 35.952 166.32 35.728C166.064 35.504 165.744 35.168 165.36 34.72C164.848 34.048 164.352 33.6 163.872 33.376C163.744 33.344 163.216 33.136 162.288 32.752C161.392 32.368 160.272 32.176 158.928 32.176C157.648 32.176 156.512 32.48 155.52 33.088C154.528 33.664 154.032 34.512 154.032 35.632C154.032 36.752 155.04 37.664 157.056 38.368C159.2 39.2 160.976 39.92 162.384 40.528C163.824 41.136 165.216 41.856 166.56 42.688C168.096 43.616 169.216 44.592 169.92 45.616C170.656 46.64 171.024 48.016 171.024 49.744ZM184.153 31.504C184.025 34.256 183.961 36.224 183.961 37.408C183.961 40 184.041 42.864 184.201 46C184.329 49.712 184.393 52.464 184.393 54.256C185.609 54.096 186.345 54.016 186.601 54.016C187.305 54.016 187.865 54.192 188.281 54.544C188.697 54.896 188.905 55.44 188.905 56.176C188.905 56.656 188.713 57.024 188.329 57.28C187.945 57.536 187.273 57.728 186.313 57.856C185.385 57.952 184.025 58 182.233 58C180.249 58 178.761 57.936 177.769 57.808C176.777 57.68 176.089 57.44 175.705 57.088C175.321 56.704 175.129 56.144 175.129 55.408C175.129 54.864 175.305 54.496 175.657 54.304C176.009 54.112 176.505 54.016 177.145 54.016L178.153 54.064L179.737 54.16L179.497 48.496C179.305 45.424 179.209 42.608 179.209 40.048C179.209 38.672 179.257 36.784 179.353 34.384L179.449 31.744C178.361 31.808 177.513 31.84 176.905 31.84C176.201 31.84 175.721 31.712 175.465 31.456C175.241 31.2 175.129 30.672 175.129 29.872C175.129 28.976 175.737 28.4 176.953 28.144C178.201 27.888 180.089 27.76 182.617 27.76C184.569 27.76 186.025 27.824 186.985 27.952C187.977 28.08 188.473 28.368 188.473 28.816C188.473 29.904 188.233 30.624 187.753 30.976C187.305 31.296 186.425 31.456 185.113 31.456L184.153 31.504ZM196.779 27.52C198.155 27.52 198.955 28.24 199.179 29.68C199.563 32.4 199.755 35.744 199.755 39.712L199.707 45.76V47.584C199.707 49.568 199.659 51.408 199.563 53.104C200.907 53.232 202.107 53.296 203.163 53.296C204.091 53.296 205.323 53.264 206.859 53.2L209.787 53.152C210.683 53.152 211.419 53.2 211.995 53.296C212.603 53.36 213.227 53.552 213.867 53.872C214.539 54.16 214.875 54.704 214.875 55.504C214.875 56.144 214.667 56.72 214.251 57.232C213.867 57.744 213.403 58 212.859 58C212.475 58 211.867 57.936 211.035 57.808C209.531 57.584 208.091 57.472 206.715 57.472C206.267 57.472 205.755 57.504 205.179 57.568C204.635 57.6 204.235 57.616 203.979 57.616C203.211 57.712 202.443 57.76 201.675 57.76C200.107 57.76 198.699 57.68 197.451 57.52C196.811 57.456 196.171 57.216 195.531 56.8C194.891 56.352 194.571 55.712 194.571 54.88C194.571 53.888 194.619 52.656 194.715 51.184C194.843 48.368 194.907 45.856 194.907 43.648C194.907 42.368 194.859 40.992 194.763 39.52C194.667 38.048 194.603 37.088 194.571 36.64C194.347 34.016 194.235 31.776 194.235 29.92C194.235 29.088 194.427 28.48 194.811 28.096C195.227 27.712 195.883 27.52 196.779 27.52ZM221.253 28.96C222.437 32.48 223.781 36.352 225.285 40.576C226.789 44.768 228.165 48.4 229.413 51.472C230.341 48.496 231.621 44.928 233.253 40.768C234.885 36.576 236.405 32.8 237.813 29.44C238.229 28.448 238.933 27.952 239.925 27.952C240.853 27.952 241.557 28.144 242.037 28.528C242.517 28.88 242.757 29.504 242.757 30.4C242.757 30.752 242.709 31.056 242.613 31.312C242.517 31.568 242.373 31.904 242.181 32.32C241.189 34.272 240.197 36.528 239.205 39.088C238.213 41.616 236.997 44.832 235.557 48.736C235.621 48.576 235.173 49.776 234.213 52.336L232.629 56.464C232.437 56.976 232.117 57.376 231.669 57.664C231.253 57.92 230.773 58.048 230.229 58.048C229.685 58.048 229.077 57.92 228.405 57.664C227.765 57.376 227.301 57.088 227.013 56.8C225.925 54.72 224.533 51.712 222.837 47.776C221.173 43.84 219.733 40.208 218.517 36.88L217.797 34.912C217.317 33.568 216.965 32.544 216.741 31.84C216.517 31.104 216.405 30.512 216.405 30.064C216.405 29.424 216.757 28.912 217.461 28.528C218.197 28.144 218.901 27.952 219.573 27.952C219.925 27.952 220.261 28.032 220.581 28.192C220.901 28.352 221.125 28.608 221.253 28.96Z" fill="white"/>
<circle cx="234.922" cy="73.5" r="9.5" fill="#3AD279"/>
<circle cx="203.711" cy="73.5" r="9.5" fill="#CDD23A"/>
<circle cx="172.5" cy="73.5" r="9.5" fill="#D23A3A"/>
<rect x="17" y="73" width="132" height="2" rx="1" fill="#D23A3A"/>
</svg>
