<svg width="682" height="416" viewBox="0 0 682 416" fill="none" xmlns="http://www.w3.org/2000/svg">
<path d="M119.803 261.92C105.43 261.92 91.8033 260.333 78.9233 257.16C66.0433 253.8 55.3099 249.227 46.7233 243.44V194.16H102.723V196.96C102.723 207.04 107.577 212.08 117.283 212.08C122.323 212.08 126.057 210.773 128.483 208.16C131.097 205.36 132.403 201.067 132.403 195.28V86.08H107.203V40.16H224.803V86.08H210.803V180.16C210.803 207.6 202.777 228.133 186.723 241.76C170.67 255.2 148.363 261.92 119.803 261.92ZM353.048 40.16H446.568V86.08H435.368L385.248 258H294.528L244.408 86.08H233.208V40.16H340.728V86.08H326.168L345.488 179.88H348.288L367.608 86.08H353.048V40.16ZM542.365 261.92C524.445 261.92 507.458 260.427 491.405 257.44C475.538 254.267 463.312 250.72 454.725 246.8V191.36H516.325C516.325 197.147 517.632 201.347 520.245 203.96C522.858 206.573 527.618 207.88 534.525 207.88C540.312 207.88 544.418 207.04 546.845 205.36C549.458 203.493 550.765 200.787 550.765 197.24C550.765 194.253 549.552 191.733 547.125 189.68C544.698 187.44 540.498 185.2 534.525 182.96L510.445 174.56C489.725 166.72 474.792 157.48 465.645 146.84C456.685 136.2 452.205 121.827 452.205 103.72C452.205 81.6933 459.392 64.9867 473.765 53.6C488.325 42.0267 512.498 36.24 546.285 36.24C562.525 36.24 577.738 37.92 591.925 41.28C606.298 44.4533 617.872 48.7467 626.645 54.16V104.28H570.645C570.645 94.9467 564.858 90.28 553.285 90.28C547.685 90.28 543.672 91.0267 541.245 92.52C539.005 93.8267 537.885 96.2533 537.885 99.8C537.885 102.973 539.192 105.493 541.805 107.36C544.605 109.227 549.085 111.187 555.245 113.24L579.605 121.64C599.392 128.36 613.765 137.133 622.725 147.96C631.872 158.6 636.445 172.6 636.445 189.96C636.445 213.667 628.418 231.587 612.365 243.72C596.498 255.853 573.165 261.92 542.365 261.92Z" fill="#FDF0F0"/>
<circle cx="517.031" cy="336.5" r="53.5" fill="#3AD279"/>
<circle cx="341.266" cy="336.5" r="53.5" fill="#CDD23A"/>
<circle cx="165.5" cy="336.5" r="53.5" fill="#D23A3A"/>
</svg>
