<svg width="245" height="59" viewBox="0 0 245 59" fill="none" xmlns="http://www.w3.org/2000/svg">
<mask id="mask0_3151_96" style="mask-type:luminance" maskUnits="userSpaceOnUse" x="0" y="0" width="245" height="59">
<path d="M245 0H0V58.1303H245V0Z" fill="white"/>
</mask>
<g mask="url(#mask0_3151_96)">
<path d="M42.7262 0H14.2426C12.3531 0.0191143 10.4858 0.410232 8.74749 1.15102C7.00915 1.8918 5.43376 2.96775 4.11127 4.31741C2.78877 5.66708 1.74509 7.26403 1.0398 9.01707C0.33451 10.7701 -0.0185583 12.6449 0.000751326 14.5344V43.5959C-0.0363019 47.4113 1.44294 51.0854 4.11343 53.8108C6.78391 56.5361 10.4272 58.0898 14.2426 58.1303H42.7262C46.5416 58.0898 50.1849 56.5361 52.8554 53.8108C55.5259 51.0854 57.0051 47.4113 56.968 43.5959V14.5344C56.9874 12.6449 56.6342 10.7701 55.929 9.01707C55.2237 7.26403 54.18 5.66708 52.8576 4.31741C51.535 2.96775 49.9597 1.8918 48.2213 1.15102C46.483 0.410232 44.6157 0.0191143 42.7262 0ZM42.7262 4.28645C45.4139 4.31733 47.9796 5.41269 49.8608 7.33237C51.7422 9.25204 52.7855 11.8394 52.762 14.5271V43.5959C52.7855 46.2836 51.7422 48.871 49.8608 50.7907C47.9796 52.7103 45.4139 53.8057 42.7262 53.8366H14.2426C11.5543 53.8057 8.98779 52.7105 7.10533 50.7911C5.22289 48.8716 4.17795 46.2843 4.19942 43.5959V14.5344C4.17795 11.846 5.22289 9.2587 7.10533 7.33923C8.98779 5.41977 11.5543 4.32464 14.2426 4.29376L42.7262 4.28645Z" fill="white"/>
<path d="M84.2506 21.2124C85.9768 22.7387 86.8399 25.0477 86.8399 28.1394V39.9894H81.1929V37.378C80.0567 39.3286 77.9477 40.2917 74.8657 40.2673C73.444 40.3142 72.0289 40.0521 70.7183 39.4993C69.6188 39.019 68.6833 38.2284 68.0264 37.2243C67.4043 36.2567 67.0812 35.127 67.0975 33.9766C67.0646 33.0957 67.2472 32.2201 67.6297 31.426C68.0121 30.6318 68.5828 29.943 69.292 29.4196C70.7549 28.3126 73.0004 27.7615 76.0288 27.7664H80.8199C80.8547 27.2034 80.7653 26.6396 80.558 26.1151C80.3506 25.5905 80.0306 25.1179 79.6203 24.7308C78.592 23.9522 77.3151 23.5752 76.0288 23.6701C74.9209 23.6717 73.8201 23.8469 72.7665 24.1894C71.783 24.4952 70.8616 24.9732 70.0453 25.6013L67.8509 21.3953C69.0893 20.5462 70.4653 19.9176 71.9179 19.5373C73.5104 19.1035 75.1537 18.8845 76.8041 18.8862C80.047 18.8862 82.5292 19.6617 84.2506 21.2124ZM79.1303 35.5346C79.9307 35.0574 80.5348 34.3105 80.8346 33.428V31.3068H76.7018C74.2294 31.3068 72.9932 32.1162 72.9932 33.7353C72.9859 34.0851 73.0624 34.4317 73.2165 34.746C73.3704 35.0603 73.5974 35.3333 73.8782 35.5419C74.6146 36.0309 75.4901 36.2671 76.3726 36.2149C77.3346 36.2345 78.2836 35.989 79.1156 35.5053L79.1303 35.5346Z" fill="white"/>
<path d="M95.0361 38.8998C93.3336 38.0408 91.9048 36.7234 90.9105 35.0961C89.9143 33.4317 89.4072 31.5202 89.4476 29.5808C89.4071 27.6391 89.9141 25.7252 90.9105 24.0582C91.9048 22.4309 93.3336 21.1136 95.0361 20.2545C96.8853 19.3213 98.9338 18.8519 101.005 18.8866C103 18.8388 104.974 19.3101 106.732 20.2545C108.328 21.1269 109.586 22.5067 110.309 24.1753L105.635 26.6842C105.205 25.8102 104.535 25.0769 103.704 24.5703C102.872 24.0637 101.913 23.8049 100.939 23.8241C100.219 23.8037 99.5013 23.93 98.8311 24.1954C98.1609 24.4606 97.5517 24.8595 97.0403 25.3675C96.5123 25.9295 96.1035 26.5925 95.8383 27.3165C95.573 28.0406 95.4569 28.8108 95.4969 29.5808C95.4575 30.3497 95.5739 31.1187 95.8391 31.8414C96.1043 32.5642 96.5129 33.2259 97.0403 33.7867C97.5506 34.2962 98.1597 34.696 98.8302 34.9615C99.5007 35.2268 100.218 35.3524 100.939 35.3302C101.911 35.3542 102.869 35.0971 103.698 34.5898C104.527 34.0824 105.192 33.3464 105.613 32.4701L110.287 35.023C109.543 36.6629 108.288 38.0178 106.71 38.8851C104.955 39.8379 102.98 40.3144 100.983 40.2677C98.9193 40.2989 96.8787 39.8296 95.0361 38.8998Z" fill="white"/>
<path d="M128.798 21.2123C130.525 22.7387 131.387 25.0477 131.387 28.1394V39.9893H125.747V37.378C124.621 39.3285 122.513 40.2917 119.421 40.2673C117.996 40.3038 116.581 40.0291 115.273 39.4627C114.181 38.9918 113.248 38.2143 112.589 37.2243C111.966 36.2566 111.643 35.1269 111.66 33.9765C111.629 33.096 111.812 32.2211 112.194 31.4271C112.577 30.6333 113.146 29.9443 113.854 29.4195C115.317 28.3126 117.563 27.7614 120.591 27.7664H125.382C125.417 27.2034 125.327 26.6396 125.12 26.115C124.913 25.5905 124.593 25.1178 124.183 24.7308C123.154 23.9522 121.877 23.5751 120.591 23.6701C119.483 23.6716 118.382 23.8468 117.329 24.1894C116.34 24.4936 115.414 24.9716 114.593 25.6012L112.435 21.3952C113.676 20.5461 115.054 19.9176 116.509 19.5373C118.099 19.1029 119.74 18.8839 121.389 18.8862C124.606 18.8862 127.077 19.6616 128.798 21.2123ZM123.678 35.5347C124.476 35.0564 125.078 34.3096 125.374 33.4279V31.3066H121.242C118.77 31.3066 117.533 32.1162 117.533 33.7352C117.524 34.0919 117.601 34.4456 117.76 34.7655C117.918 35.0854 118.151 35.362 118.44 35.5712C119.177 36.0601 120.052 36.2964 120.935 36.2442C121.897 36.2514 122.843 35.9959 123.67 35.5053L123.678 35.5347Z" fill="white"/>
<path d="M157.448 11.3159V39.9605H151.698V37.5686C150.206 39.3679 148.043 40.2677 145.211 40.2677C143.359 40.2957 141.533 39.8446 139.908 38.9584C138.331 38.0935 137.036 36.7935 136.178 35.2132C135.251 33.483 134.787 31.5429 134.831 29.5808C134.789 27.6166 135.252 25.6744 136.178 23.9412C137.036 22.3609 138.331 21.0609 139.908 20.1961C141.534 19.3128 143.36 18.862 145.211 18.8867C146.367 18.8229 147.525 19.0146 148.599 19.4481C149.674 19.8818 150.64 20.5467 151.428 21.3956V11.3159H157.448ZM150.038 33.7649C150.554 33.2015 150.952 32.5417 151.21 31.8236C151.47 31.1054 151.583 30.3432 151.546 29.5808C151.583 28.8173 151.47 28.0538 151.212 27.3343C150.952 26.615 150.554 25.954 150.038 25.3895C149.554 24.8775 148.966 24.4735 148.315 24.2037C147.663 23.934 146.962 23.8046 146.257 23.8241C145.545 23.8049 144.838 23.9341 144.179 24.2037C143.52 24.4731 142.926 24.877 142.431 25.3895C141.917 25.9542 141.52 26.6156 141.262 27.335C141.004 28.0544 140.892 28.8178 140.932 29.5808C140.892 30.3427 141.005 31.1048 141.263 31.823C141.52 32.5411 141.917 33.2012 142.431 33.7649C142.926 34.2774 143.52 34.6813 144.179 34.9508C144.838 35.2203 145.545 35.3496 146.257 35.3303C146.962 35.3497 147.663 35.2203 148.315 34.9506C148.966 34.6809 149.554 34.2769 150.038 33.7649Z" fill="white"/>
<path d="M181.702 31.2778H165.989C166.237 32.5159 166.955 33.6095 167.994 34.3281C169.149 35.101 170.518 35.4924 171.907 35.4472C172.903 35.4689 173.895 35.3053 174.833 34.9645C175.705 34.6157 176.498 34.0958 177.166 33.4357L180.369 36.9102C178.42 39.1485 175.562 40.2677 171.796 40.2677C169.648 40.3118 167.519 39.8429 165.586 38.8998C163.859 38.0596 162.412 36.7388 161.418 35.0962C160.427 33.4293 159.92 31.5195 159.955 29.5808C159.932 27.6481 160.437 25.746 161.418 24.0801C162.343 22.4704 163.695 21.1467 165.323 20.2545C167.049 19.3654 168.96 18.8966 170.902 18.8864C172.842 18.8762 174.759 19.325 176.493 20.196C178.123 21.0521 179.471 22.36 180.377 23.9631C181.341 25.7025 181.825 27.6661 181.782 29.654C181.801 29.7369 181.774 30.2781 181.702 31.2778ZM167.605 24.5995C166.656 25.4118 166.049 26.5542 165.908 27.796H176.149C175.994 26.5636 175.382 25.4344 174.433 24.6322C173.485 23.8301 172.27 23.4138 171.029 23.4657C169.789 23.4213 168.574 23.8236 167.605 24.5995Z" fill="white"/>
<path d="M217.84 21.2126C219.367 22.739 220.132 25.0359 220.137 28.1031V39.9603H214.117V28.9882C214.211 27.6871 213.849 26.3936 213.092 25.3309C212.73 24.9173 212.278 24.5923 211.771 24.3804C211.265 24.1688 210.715 24.076 210.166 24.1093C209.54 24.0801 208.915 24.188 208.336 24.4255C207.756 24.6631 207.234 25.0245 206.809 25.4844C205.906 26.6395 205.466 28.0893 205.573 29.5515V39.9603H199.553V28.9882C199.553 25.7258 198.241 24.0922 195.618 24.0874C194.997 24.0595 194.378 24.1683 193.804 24.4059C193.231 24.6435 192.716 25.0041 192.297 25.4625C191.47 26.3696 191.061 27.7301 191.061 29.5295V39.9603H185.062V19.1938H190.811V21.5857C191.591 20.7088 192.563 20.0231 193.65 19.5814C194.811 19.1098 196.054 18.8736 197.307 18.8865C198.687 18.8623 200.054 19.1577 201.301 19.7496C202.465 20.3177 203.451 21.193 204.153 22.2806C205.006 21.1862 206.114 20.3171 207.38 19.7496C208.72 19.1492 210.175 18.8472 211.644 18.8646C212.782 18.8128 213.919 18.9943 214.985 19.3981C216.051 19.802 217.022 20.4194 217.84 21.2126Z" fill="white"/>
<path d="M245.007 19.1934L235.622 41.2328C234.67 43.632 233.493 45.3143 232.088 46.2946C230.59 47.298 228.815 47.8095 227.012 47.7575C225.925 47.7545 224.845 47.5868 223.809 47.26C222.86 46.9827 221.98 46.5092 221.227 45.8702L223.421 41.5838C223.892 41.9998 224.435 42.3269 225.023 42.5494C225.594 42.7751 226.202 42.8918 226.814 42.8932C227.532 42.9258 228.241 42.7173 228.826 42.3007C229.44 41.7576 229.913 41.0753 230.209 40.311L230.289 40.1136L221.292 19.1934H227.495L233.347 33.2816L239.199 19.1934H245.007Z" fill="white"/>
<path d="M26.7892 10.8838H32.1875L19.4159 47.2455H14.0469L26.7892 10.8838Z" fill="#E5007B"/>
<path d="M37.5548 10.8838H42.9239L30.1816 47.2455H24.8125L37.5548 10.8838Z" fill="#E5007B"/>
</g>
</svg>
