<svg width="197" height="80" viewBox="0 0 197 80" fill="none" xmlns="http://www.w3.org/2000/svg">
<path d="M197 66.6398C197.005 69.2378 196.239 71.779 194.801 73.9425C193.362 76.1059 191.315 77.7946 188.917 78.7954C186.52 79.7936 183.88 80.0572 181.332 79.5528C178.785 79.0485 176.444 77.7989 174.608 75.9625C172.771 74.1261 171.52 71.7866 171.012 69.2396C170.505 66.6926 170.763 64.0522 171.755 61.6519C172.747 59.2516 174.428 57.1991 176.585 55.7534C178.743 54.3078 181.28 53.534 183.878 53.5296C187.353 53.5296 190.686 54.9124 193.145 57.3701C195.606 59.8284 196.992 63.1616 197 66.6398ZM157.594 71.659C163.973 66.666 168.377 59.5751 170.025 51.644C171.674 43.713 170.46 35.4544 166.599 28.3332C162.738 21.2144 156.479 15.6953 148.932 12.7573C141.389 9.82062 133.049 9.65656 125.396 12.2943C117.741 14.9345 111.27 20.2043 107.134 27.1666C102.997 34.1313 101.46 42.3362 102.797 50.3259C104.134 58.3156 108.257 65.5737 114.436 70.8127C120.435 75.895 128.002 78.7541 135.863 78.9083C143.724 79.0624 151.4 76.5022 157.594 71.659ZM68.3155 42.3509V3.84918e-06C63.8285 -0.00242796 59.4161 1.14744 55.501 3.33945C51.5859 5.53145 48.2993 8.69213 45.9561 12.5187C39.1241 10.0129 31.6706 9.75404 24.6812 11.7798C17.6919 13.8056 11.532 18.0102 7.09888 23.781C2.66047 29.5538 0.177088 36.5907 0.00911921 43.8706C-0.158849 51.1504 1.99734 58.2944 6.16477 64.2657C10.3291 70.2354 16.2894 74.7209 23.1786 77.0699C30.0667 79.418 37.5247 79.5054 44.466 77.3193C51.4072 75.1332 57.4692 70.7879 61.7686 64.9164C66.0737 59.0435 68.3955 51.9517 68.3971 44.6699C68.3971 43.8867 68.3563 43.1178 68.3155 42.3509ZM85.1315 26.3793C83.4202 26.3798 81.7259 26.7174 80.1451 27.3728C78.5644 28.0283 77.1283 28.9888 75.9189 30.1994C73.4754 32.6467 72.1029 35.9638 72.1029 39.4222V78.9157C79.0578 78.9157 85.727 76.1501 90.6443 71.2267C95.5631 66.3016 98.3256 59.6255 98.3252 52.6649V39.6017C98.3258 36.098 96.9366 32.7372 94.4624 30.2565C93.2378 29.0292 91.7835 28.0552 90.1825 27.3899C88.5815 26.7247 86.8652 26.3813 85.1315 26.3793Z" fill="white"/>
<path d="M98.3641 13.1346C98.3636 15.7311 97.5941 18.2693 96.1528 20.429C94.7114 22.5887 92.6627 24.2731 90.2651 25.2698C87.8673 26.2648 85.2281 26.5253 82.6821 26.0184C80.136 25.5115 77.7978 24.26 75.9639 22.4227C74.1303 20.5851 72.882 18.2456 72.3765 15.6994C71.8711 13.1531 72.1311 10.5142 73.1238 8.11561C74.1165 5.71699 75.7974 3.66614 77.9544 2.22179C80.1114 0.777449 82.6479 0.00433679 85.2438 0C88.7232 0 92.0599 1.38688 94.5196 3.8486C96.9802 6.31273 98.3628 9.65231 98.3641 13.1346Z" fill="white"/>
</svg>
