<svg width="420" height="42" viewBox="0 0 420 42" fill="none" xmlns="http://www.w3.org/2000/svg">
<path d="M32.0001 32.8658C20.3255 43.1117 12.0257 43.833 7.78588 39.4708C3.87153 35.4516 7.11779 25.3728 15.0236 15.426L0 0H9.60173L24.5311 15.3292C15.1092 25.0561 9.61886 35.4252 12.454 38.3363C14.8009 40.7548 22.0386 37.4039 29.8502 30.6672L32.0001 32.8747V32.8658Z" fill="white"/>
<path d="M58.0001 42.0001H48.4009L33.4755 26.6755C42.8949 16.9515 48.3838 6.59436 45.5494 3.6754C43.1946 1.25758 35.9588 4.60737 28.1493 11.3421L26 9.13531C37.68 -1.10749 45.969 -1.83721 50.2163 2.53245C54.1296 6.55042 50.8842 16.6262 42.9805 26.57L58.0001 41.9912V42.0001Z" fill="white"/>
<path d="M102.883 23.8259C104.718 22.0928 105.655 19.4548 105.655 16.0057C105.655 9.64545 102.376 6 96.6565 6H78V35.9915H82.499V11.0029H96.6565C99.8964 11.0029 101.156 12.403 101.156 16.0057C101.156 19.6085 99.8964 21.0086 96.6565 21.0086H87.405L100.203 36H106L97.5547 25.9858C99.7428 25.8321 101.532 25.1065 102.875 23.8344L102.883 23.8259Z" fill="white"/>
<path d="M127.987 6H127.979C121.569 6 117.003 7.92769 114.392 11.7247C112.244 14.854 112 18.5091 112 20.9959C112 23.4827 112.244 27.1377 114.392 30.2671C116.995 34.064 121.569 35.9917 127.979 36H127.987C134.398 36 138.971 34.0723 141.591 30.2837C143.747 27.146 144 23.4827 144 21.0042C144 18.5258 143.747 14.8624 141.591 11.7247C138.98 7.92769 134.398 6.00835 127.987 6.00835V6ZM137.514 27.5216C135.872 29.8999 132.671 31.1099 127.987 31.1099H127.979C123.304 31.1099 120.112 29.8999 118.478 27.5216C117.113 25.5272 116.936 22.9903 116.936 21.0042C116.936 19.0181 117.113 16.4729 118.478 14.4868C120.112 12.1085 123.304 10.8984 127.979 10.8984C132.662 10.8984 135.863 12.1085 137.506 14.4868C138.879 16.4813 139.056 19.0181 139.056 21.0042C139.056 22.9903 138.879 25.5272 137.506 27.5216H137.514Z" fill="white"/>
<path d="M312.677 20.3062C310.981 19.1326 308.678 18.5415 305.826 18.5415H296.174C291.318 18.5415 290.916 16.5711 290.916 14.7293C290.916 12.8875 291.318 10.9173 296.174 10.9173H314.578V6H296.174C293.322 6 291.01 6.59112 289.323 7.76474C287.807 8.80988 286 10.8743 286 14.7293C286 18.5842 287.807 20.6489 289.323 21.694C291.019 22.8676 293.322 23.4586 296.174 23.4586H305.826C307.641 23.4586 309.037 23.7671 309.885 24.3496C310.399 24.7094 311.084 25.3947 311.084 27.2708C311.084 29.1469 310.682 31.0828 305.826 31.0828H287.233V36H305.826C308.678 36 310.99 35.409 312.677 34.2353C314.193 33.1902 316 31.1258 316 27.2708C316 23.4159 314.193 21.3512 312.677 20.2976V20.3062Z" fill="white"/>
<path d="M223.446 23.4964H243.232V18.5036H223.446V11.0015H247.954V6H218V36H248V30.9986H223.446V23.4964Z" fill="white"/>
<path d="M327.076 23.4964H345.549V18.5036H327.076V11.0015H349.957V6H322V36H350V30.9986H327.076V23.4964Z" fill="white"/>
<path d="M252 10.9046H264.551V36H269.449V10.9046H282V6H252V10.9046Z" fill="white"/>
<path d="M420 6H390V10.9046H402.555V36H407.454V10.9046H420V6Z" fill="white"/>
<path d="M213.946 6H207.321L194 20.9872L207.339 36H214L200.867 20.9786L213.946 6Z" fill="white"/>
<path d="M190 6H184V36H190V6Z" fill="white"/>
<path d="M376.403 6H363.588C358.302 6 354 10.0308 354 14.9838V36H359.295V25.6841H380.732V36H385.964V23.5832C385.982 23.4637 386 23.3357 386 23.2076V14.9923C386 10.0392 381.698 6.00855 376.412 6.00855L376.403 6ZM380.696 20.7225H359.295V14.9923C359.295 12.7719 361.218 10.9702 363.588 10.9702H376.403C378.772 10.9702 380.696 12.7719 380.696 14.9923V20.7225Z" fill="white"/>
<path d="M148 14.9915V27.0086C148 31.9659 152.299 36 157.583 36H180V31.0342H157.583C155.214 31.0342 153.292 29.2308 153.292 27.0086V14.9915C153.292 12.7693 155.214 10.9658 157.583 10.9658H180V6H157.583C152.299 6 148 10.0342 148 14.9915Z" fill="white"/>
</svg>
